<svg xmlns="http://www.w3.org/2000/svg" viewBox="0 0 547 456" version="1.1"><path d="M 362.579 19.038 C 347.078 24.540, 337.724 35.569, 319.778 69.500 C 314.542 79.400, 307.094 93.125, 303.228 100 C 299.362 106.875, 296.406 112.838, 296.658 113.250 C 296.911 113.662, 297.889 114, 298.832 114 C 302.279 114, 316.553 120.214, 323.092 124.561 C 342.972 137.777, 358.140 165.066, 362.085 194.714 C 363.565 205.832, 362.701 230.912, 360.491 241 C 349.940 289.158, 316.407 325.904, 268.356 341.964 C 245.391 349.639, 227.375 352.338, 199 352.356 C 178.035 352.370, 158.371 350.496, 137.500 346.498 L 125.500 344.199 94.500 375.008 C 77.450 391.953, 56.750 412.009, 48.500 419.576 C 40.250 427.144, 33.362 433.673, 33.194 434.085 C 32.486 435.820, 53.771 438.761, 73.320 439.629 C 115.933 441.523, 148.329 429.220, 171.415 402.378 C 179.041 393.511, 190.013 376.896, 195.666 365.656 C 199.840 357.358, 200.274 356.852, 202.694 357.459 C 204.112 357.815, 211.849 359.276, 219.886 360.706 C 232.676 362.982, 237.371 363.316, 257.500 363.385 C 282.953 363.473, 291.361 362.421, 309.387 356.890 C 351.708 343.905, 382.053 313.584, 394.567 271.776 C 400.549 251.790, 402.515 224.383, 399.573 202 C 396.555 179.044, 393.580 167.940, 380.987 132.641 C 374.893 115.559, 375.933 98.513, 383.769 87.036 C 392.963 73.571, 408.492 67.680, 426.025 71.005 C 428.939 71.557, 431.536 71.797, 431.796 71.537 C 432.056 71.277, 431.706 69.705, 431.018 68.043 C 429.270 63.825, 422.897 58.349, 418.040 56.894 C 413.694 55.592, 413.575 55.369, 412.570 46.650 C 411.813 40.081, 406.668 30.789, 401.398 26.470 C 390.763 17.755, 374.801 14.699, 362.579 19.038 M 387.073 41.635 C 384.387 45.049, 384.460 46.551, 387.455 49.545 C 390.430 52.521, 393.325 52.675, 396 50 C 399.933 46.067, 397.089 39, 391.573 39 C 390.141 39, 388.295 40.081, 387.073 41.635 M 300.365 130.750 C 317.835 165.536, 317.131 205.014, 298.419 239.869 C 282.900 268.777, 257.150 291.331, 217.632 310.627 C 211.105 313.814, 206.266 316.589, 206.878 316.793 C 208.974 317.491, 226.859 311.089, 237.181 305.945 C 254.208 297.459, 266.203 288.838, 279.514 275.521 C 298.993 256.031, 309.365 238.323, 316.132 213 C 319.067 202.017, 319.774 179.381, 317.553 167.500 C 315.458 156.295, 311.154 143.241, 306.519 134.039 C 304.570 130.167, 303.318 126.984, 303.737 126.965 C 304.955 126.908, 299.634 124.075, 298.237 124.035 C 297.440 124.013, 298.223 126.485, 300.365 130.750 M 275.566 146.750 C 245.458 195.676, 205.438 251.303, 171.120 291.929 C 167.204 296.565, 164 301.115, 164 302.039 C 164 302.964, 162.966 305.246, 161.702 307.110 C 160.437 308.975, 159.078 311.349, 158.681 312.386 C 154.862 322.356, 193.949 275.792, 225.417 232.884 C 253.701 194.316, 290.050 138.786, 289.968 134.267 C 289.939 132.642, 287.807 129, 286.884 129 C 286.667 129, 281.574 136.988, 275.566 146.750 M 148.449 323.520 C 144.077 328.205, 140.328 332.546, 140.118 333.166 C 139.431 335.192, 144.411 330.767, 148.500 325.719 C 150.700 323.003, 153.570 319.480, 154.878 317.890 C 159.437 312.349, 156.341 315.060, 148.449 323.520" stroke="none" fill="#e9f3f9" fill-rule="evenodd"/><path d="M 365 7.086 C 362.525 7.564, 356.837 9.762, 352.359 11.971 C 338.055 19.030, 327.662 31.925, 310.646 63.727 C 297.003 89.224, 294.660 93.435, 282.679 114 C 240.820 185.850, 195.279 248.778, 138.662 313 C 110.126 345.369, 61.638 393.846, 27.974 423.663 C 14.200 435.863, 9.542 440.603, 10.663 441.282 C 11.833 441.990, 30.523 445.687, 42.500 447.578 C 58.377 450.085, 95.058 450.639, 108.225 448.570 C 147.159 442.452, 174.857 422.181, 198.122 382.779 C 202.109 376.026, 205.626 370.189, 205.936 369.809 C 206.246 369.429, 211.450 369.977, 217.500 371.026 C 223.550 372.076, 233.334 373.242, 239.243 373.617 L 249.986 374.300 256.243 385.258 C 259.684 391.285, 263.950 398.755, 265.723 401.858 L 268.946 407.500 231.723 408 L 194.500 408.500 194.500 413.500 L 194.500 418.500 334.802 418.753 L 475.105 419.007 474.802 413.753 L 474.500 408.500 465.192 408.212 L 455.885 407.923 456.483 398.212 C 459.111 355.532, 463.383 336.167, 474.742 315.434 C 479.272 307.165, 493.033 292.946, 501.050 288.250 C 506.447 285.088, 523.044 278.711, 523.830 279.497 C 524.046 279.713, 523.677 283.851, 523.010 288.694 C 519.235 316.125, 506.808 332.028, 487.803 333.752 C 483.261 334.163, 482.003 333.976, 482.014 332.889 C 482.022 332.125, 484.203 327, 486.860 321.500 C 493.138 308.502, 500.597 299.007, 508.250 294.271 C 514.545 290.375, 509.673 289.843, 501.361 293.519 C 492.790 297.309, 481.725 309.008, 475.839 320.500 C 470.674 330.586, 466.396 341.729, 467.330 342.664 C 467.669 343.002, 472.052 343.751, 477.070 344.327 C 488.644 345.655, 497.954 344.208, 506.238 339.793 C 517.837 333.610, 527.903 318.771, 532.024 301.781 C 534.339 292.233, 535.711 269.338, 534.107 267.005 C 533.206 265.695, 531.931 265.802, 523.790 267.866 C 499.903 273.921, 485.343 282.823, 472.048 299.500 C 469.418 302.800, 466.250 307.503, 465.010 309.951 L 462.754 314.402 460.472 308.331 C 454.514 292.484, 441.785 278.953, 424.775 270.387 C 421.076 268.524, 417.671 267, 417.208 267 C 415.868 267, 413.021 277.177, 411.792 286.359 C 409.089 306.563, 416.017 324.545, 429.561 332.483 C 434.305 335.263, 447.955 338.615, 450.522 337.630 C 452.564 336.846, 452.399 331.881, 450.022 322.585 C 447.378 312.246, 443.627 305.669, 437.671 300.927 C 431.104 295.698, 429.118 295.800, 433.004 301.165 C 437.730 307.688, 442.193 325, 439.150 325 C 438.683 325, 436.440 323.652, 434.166 322.005 C 429.351 318.517, 425.665 313.088, 423.907 306.891 C 422.635 302.408, 422.226 284.440, 423.371 283.296 C 425.365 281.302, 438.913 293.122, 444.885 302.065 C 449.078 308.344, 452.324 316.902, 454.030 326.174 C 454.936 331.103, 454.749 333.138, 452.600 341.674 C 449.221 355.098, 447.243 369.224, 445.798 390.250 L 444.579 408 390.315 408 L 336.051 408 334.392 404.750 C 333.479 402.962, 329.953 396.775, 326.557 391 C 323.161 385.225, 318.731 377.519, 316.713 373.876 L 313.043 367.252 319.272 364.994 C 322.697 363.753, 330.225 360.367, 336 357.472 C 362.455 344.206, 381.973 324.775, 395.233 298.500 C 401.528 286.027, 404.308 277.925, 407.528 262.677 C 415.503 224.906, 411.195 183.089, 394.922 140.294 C 389.321 125.567, 387.991 119.803, 388.056 110.540 C 388.150 97.059, 392.854 88.876, 403.373 83.900 C 413.143 79.278, 424.045 79.871, 437.294 85.744 C 441.325 87.531, 443.406 87.994, 444.133 87.267 C 445.636 85.764, 443.551 70.034, 441.121 64.541 C 438.686 59.037, 431.743 51.420, 426.915 48.956 C 423.737 47.335, 423.148 46.474, 422.566 42.594 C 419.145 19.776, 390.579 2.156, 365 7.086 M 362.579 19.038 C 347.078 24.540, 337.724 35.569, 319.778 69.500 C 314.542 79.400, 307.094 93.125, 303.228 100 C 299.362 106.875, 296.406 112.838, 296.658 113.250 C 296.911 113.662, 297.889 114, 298.832 114 C 302.279 114, 316.553 120.214, 323.092 124.561 C 342.972 137.777, 358.140 165.066, 362.085 194.714 C 363.565 205.832, 362.701 230.912, 360.491 241 C 349.940 289.158, 316.407 325.904, 268.356 341.964 C 245.391 349.639, 227.375 352.338, 199 352.356 C 178.035 352.370, 158.371 350.496, 137.500 346.498 L 125.500 344.199 94.500 375.008 C 77.450 391.953, 56.750 412.009, 48.500 419.576 C 40.250 427.144, 33.362 433.673, 33.194 434.085 C 32.486 435.820, 53.771 438.761, 73.320 439.629 C 115.933 441.523, 148.329 429.220, 171.415 402.378 C 179.041 393.511, 190.013 376.896, 195.666 365.656 C 199.840 357.358, 200.274 356.852, 202.694 357.459 C 204.112 357.815, 211.849 359.276, 219.886 360.706 C 232.676 362.982, 237.371 363.316, 257.500 363.385 C 282.953 363.473, 291.361 362.421, 309.387 356.890 C 351.708 343.905, 382.053 313.584, 394.567 271.776 C 400.549 251.790, 402.515 224.383, 399.573 202 C 396.555 179.044, 393.580 167.940, 380.987 132.641 C 374.893 115.559, 375.933 98.513, 383.769 87.036 C 392.963 73.571, 408.492 67.680, 426.025 71.005 C 428.939 71.557, 431.536 71.797, 431.796 71.537 C 432.056 71.277, 431.706 69.705, 431.018 68.043 C 429.270 63.825, 422.897 58.349, 418.040 56.894 C 413.694 55.592, 413.575 55.369, 412.570 46.650 C 411.813 40.081, 406.668 30.789, 401.398 26.470 C 390.763 17.755, 374.801 14.699, 362.579 19.038 M 387.073 41.635 C 384.387 45.049, 384.460 46.551, 387.455 49.545 C 390.430 52.521, 393.325 52.675, 396 50 C 399.933 46.067, 397.089 39, 391.573 39 C 390.141 39, 388.295 40.081, 387.073 41.635 M 300.365 130.750 C 317.835 165.536, 317.131 205.014, 298.419 239.869 C 282.900 268.777, 257.150 291.331, 217.632 310.627 C 211.105 313.814, 206.266 316.589, 206.878 316.793 C 208.974 317.491, 226.859 311.089, 237.181 305.945 C 254.208 297.459, 266.203 288.838, 279.514 275.521 C 298.993 256.031, 309.365 238.323, 316.132 213 C 319.067 202.017, 319.774 179.381, 317.553 167.500 C 315.458 156.295, 311.154 143.241, 306.519 134.039 C 304.570 130.167, 303.318 126.984, 303.737 126.965 C 304.955 126.908, 299.634 124.075, 298.237 124.035 C 297.440 124.013, 298.223 126.485, 300.365 130.750 M 275.566 146.750 C 245.458 195.676, 205.438 251.303, 171.120 291.929 C 167.204 296.565, 164 301.115, 164 302.039 C 164 302.964, 162.966 305.246, 161.702 307.110 C 160.437 308.975, 159.078 311.349, 158.681 312.386 C 154.862 322.356, 193.949 275.792, 225.417 232.884 C 253.701 194.316, 290.050 138.786, 289.968 134.267 C 289.939 132.642, 287.807 129, 286.884 129 C 286.667 129, 281.574 136.988, 275.566 146.750 M 148.449 323.520 C 144.077 328.205, 140.328 332.546, 140.118 333.166 C 139.431 335.192, 144.411 330.767, 148.500 325.719 C 150.700 323.003, 153.570 319.480, 154.878 317.890 C 159.437 312.349, 156.341 315.060, 148.449 323.520 M 293 371.629 C 289.425 372.393, 281.550 373.352, 275.500 373.759 C 266.202 374.385, 264.519 374.754, 264.620 376.138 C 264.686 377.039, 268.697 384.577, 273.534 392.888 L 282.327 408 302.664 408 C 313.849 408, 323 407.817, 323 407.593 C 323 407.369, 320.393 402.757, 317.207 397.343 C 314.020 391.929, 309.183 383.564, 306.457 378.753 C 303.731 373.943, 301.050 370.059, 300.500 370.122 C 299.950 370.186, 296.575 370.864, 293 371.629" stroke="none" fill="#24437d" fill-rule="evenodd"/></svg>